{"title":"Rio [2011] BRrip-480p-Hindi-[~HFR~]","uid":6637981,"size":304147917,"categoryP":"video","categoryS":"movies","magnet":"?xt=urn:btih:71e3c22e832afc80d43c1c98d57564aaa960c032&amp;dn=Rio+%5B2011%5D+BRrip-480p-Hindi-%5B%7EHFR%7E%5D+&amp;tr=udp%3A%2F%2Ftracker.openbittorrent.com%3A80&amp;tr=udp%3A%2F%2Fopen.demonii.com%3A1337&amp;tr=udp%3A%2F%2Ftracker.coppersurfer.tk%3A6969&amp;tr=udp%3A%2F%2Fexodus.desync.com%3A6969","seeders":0,"leechers":0,"uploader":"haun15","files":3,"time":1314633546,"description":"[quote][img]http://www.postimg.com/image/46000/photo-45641.jpg[/img]\n[img]http://leetleech.org/images/80466062096578101552.png[/img]\n\nGeneral\n\nComplete name                    : H:\\Rio [2011]-480p-Hindi-BRrip-[~HFR~]\nFormat                           : Matroska\nFormat version                   : Version 2\nFile size                        : 290 MiB\nDuration                         : 1h 32mn\nOverall bit rate                 : 440 Kbps\n\nVideo\nID                               : 1\nFormat                           : AVC\nFormat/Info                      : Advanced Video Codec\nFormat profile                   : &lt;a class=&quot;__cf_email__&quot; href=&quot;/cdn-cgi/l/email-protection&quot; data-cfemail=&quot;feb39f9790beb2cad0cf&quot;&gt;[email&amp;#160;protected]&lt;/a&gt;&lt;script cf-hash='f9e31' type=&quot;text/javascript&quot;&gt;\n/* &lt;![CDATA[ */!function(){try{var t=&quot;currentScript&quot;in document?document.currentScript:function(){for(var t=document.getElementsByTagName(&quot;script&quot;),e=t.length;e--;)if(t[e].getAttribute(&quot;cf-hash&quot;))return t[e]}();if(t&amp;&amp;t.previousSibling){var e,r,n,i,c=t.previousSibling,a=c.getAttribute(&quot;data-cfemail&quot;);if(a){for(e=&quot;&quot;,r=parseInt(a.substr(0,2),16),n=2;a.length-n;n+=2)i=parseInt(a.substr(n,2),16)^r,e+=String.fromCharCode(i);e=document.createTextNode(e),c.parentNode.replaceChild(e,c)}}}catch(u){}}();/* ]]&gt; */&lt;/script&gt;\nFormat settings, CABAC           : Yes\nFormat settings, ReFrames        : 16 frames\nMuxing mode                      : Header stripping\nCodec ID                         : V_MPEG4/ISO/AVC\nDuration                         : 1h 32mn\nBit rate                         : 360 Kbps\nWidth                            : 720 pixels\nHeight                           : 304 pixels\nDisplay aspect ratio             : 2.35:1\nFrame rate                       : 25.000 fps\nOriginal frame rate              : 23.976 fps\nColor space                      : YUV\nChroma subsampling               : 4:2:0\nBit depth                        : 8 bits\nScan type                        : Progressive\nBits/(Pixel*Frame)               : 0.066\nStream size                      : 242 MiB\n\n\nAudio\nID                               : 2\nFormat                           : MPEG Audio\nFormat version                   : Version 1\nFormat profile                   : Layer 3\nMode                             : Joint stereo\nMode extension                   : MS Stereo\nMuxing mode                      : Header stripping\nCodec ID                         : A_MPEG/L3\nCodec ID/Hint                    : MP3\nDuration                         : 1h 32mn\nBit rate mode                    : Constant\nBit rate                         : 64.0 Kbps\nChannel(s)                       : 2 channels\nSampling rate                    : 44.1 KHz\nCompression mode                 : Lossy\nStream size                      : 42.1 MiB \n\n[img]http://leetleech.org/images/37571685308686837845.png[/img]\nIn Rio de Janeiro, the macaw baby Blu is captured by dealers and smuggled to the United States of America. While driving through Moose Lake, Minnesotta, the truck that is transporting Blu has a minor accident that drops the box where he is trapped on the road. The girl Linda finds the bird and raises him with love. Fifteen years later, Blu is a domesticated and intelligent bird that does not fly and lives a comfortable life with the bookshop owner Linda. Out of the blue, the clumsy Brazilian ornithologist Tulio visits Linda and explains that Blu is the last male of his species alive and he has a female called Jewel in Rio de Janeiro. He invites Linda to travel with Blu to Rio de Janeiro to mate with Jewel and save their species. Linda travels with Blu and Tulio to Rio de Janeiro and they leave Blue and Jewel in a large cage in the institute where Tulio works. While they are having dinner... \n\n[img]http://leetleech.org/images/47672446756309998169.png[/img]\n[url]http://www.imdb.com/title/tt1436562/[/url]\n\n[img]http://leetleech.org/images/32213758148792891108.png[/img]\nDirector:\nCarlos Saldanha\nWriters:\nCarlos Saldanha (story), Earl Richey Jones (story), and 5 more credits Ã‚Â»\nStars:\nJesse Eisenberg, Anne Hathaway and George Lopez\n\n[img]http://leetleech.org/images/73962242004612563100.jpg[/img]\nBudget:\n$90,000,000 (estimated)\nOpening Weekend:\nÃ‚Â£1,515,853 (UK) (10 April 2011) (522 Screens)\nGross:\n$143,558,181 (USA) (21 August 2011)\n\n[img]http://leetleech.org/images/30968320715484247309.png[/img]\n[img]http://www.postimg.com/image/46000/photo-45642.jpg[/img]\n[img]http://www.postimg.com/image/46000/photo-45643.jpg[/img]\n[img]http://www.postimg.com/image/46000/photo-45644.jpg[/img]\n[img]http://www.postimg.com/image/46000/photo-45645.jpg[/img]\n[img]http://www.postimg.com/image/46000/photo-45646.jpg[/img]\n\n[img]http://leetleech.org/images/85565807790042668303.gif[/img]\n[img]http://leetleech.org/images/18843140288135383398.gif[/img]\n\n[img]http://leetleech.org/images/03321443499000046493.gif[/img]\n","torrent":{"xt":"urn:btih:71e3c22e832afc80d43c1c98d57564aaa960c032","amp;dn":"Rio+%5B2011%5D+BRrip-480p-Hindi-%5B%7EHFR%7E%5D+","amp;tr":["udp%3A%2F%2Ftracker.openbittorrent.com%3A80","udp%3A%2F%2Fopen.demonii.com%3A1337","udp%3A%2F%2Ftracker.coppersurfer.tk%3A6969","udp%3A%2F%2Fexodus.desync.com%3A6969"],"infoHash":"71e3c22e832afc80d43c1c98d57564aaa960c032","infoHashBuffer":{"type":"Buffer","data":[113,227,194,46,131,42,252,128,212,60,28,152,213,117,100,170,169,96,192,50]},"announce":[],"urlList":[]}}